<svg width="1349" height="224" viewBox="0 0 1349 224" fill="none" xmlns="http://www.w3.org/2000/svg">
<g filter="url(#filter0_dd_8186_36517)">
<path d="M121.898 0H162.253V138.248C162.253 153.771 158.929 167.353 152.281 178.995C145.695 190.637 136.468 199.715 124.601 206.229C112.733 212.674 98.9085 215.896 83.1266 215.896C67.2827 215.896 53.427 212.674 41.5595 206.229C29.6921 199.715 20.4653 190.637 13.8792 178.995C7.29306 167.353 4 153.771 4 138.248V0H44.3555V134.402C44.3555 142.51 45.9399 149.717 49.1087 156.023C52.3396 162.329 56.8754 167.284 62.7159 170.887C68.5564 174.491 75.36 176.293 83.1266 176.293C90.9554 176.293 97.759 174.491 103.537 170.887C109.378 167.284 113.883 162.329 117.051 156.023C120.282 149.717 121.898 142.51 121.898 134.402V0Z" fill="#070C29"/>
<path d="M189.461 212.882V53.2204H227.953V81.078H229.444C232.053 71.1684 236.434 63.6843 242.585 58.6256C248.736 53.4976 255.819 50.9336 263.835 50.9336C265.823 50.9336 267.966 51.0722 270.265 51.3494C272.564 51.6266 274.584 52.0077 276.323 52.4928V91.7844C274.459 91.1607 271.881 90.6063 268.588 90.1213C265.295 89.6362 262.281 89.3936 259.547 89.3936C253.707 89.3936 248.488 90.8142 243.89 93.6554C239.354 96.4273 235.75 100.308 233.079 105.297C230.469 110.287 229.164 116.038 229.164 122.552V212.882H189.461Z" fill="#070C29"/>
<path d="M292.347 212.882V0H332.05V80.0385H333.262C335.002 75.7421 337.518 71.3763 340.811 66.9413C344.166 62.437 348.516 58.6949 353.859 55.7151C359.265 52.666 365.975 51.1415 373.99 51.1415C384.429 51.1415 394.059 54.1906 402.882 60.2887C411.705 66.3176 418.757 75.4302 424.039 87.6266C429.32 99.7536 431.961 114.964 431.961 133.259C431.961 151.068 429.382 166.106 424.225 178.372C419.13 190.568 412.171 199.819 403.348 206.125C394.587 212.362 384.77 215.48 373.897 215.48C366.192 215.48 359.637 214.06 354.232 211.218C348.888 208.377 344.508 204.808 341.091 200.512C337.673 196.146 335.064 191.746 333.262 187.311H331.491V212.882H292.347ZM331.211 133.051C331.211 142.545 332.392 150.826 334.753 157.894C337.114 164.962 340.531 170.472 345.005 174.422C349.479 178.302 354.915 180.243 361.315 180.243C367.777 180.243 373.245 178.268 377.718 174.318C382.192 170.298 385.578 164.755 387.877 157.686C390.238 150.549 391.419 142.337 391.419 133.051C391.419 123.834 390.269 115.727 387.97 108.728C385.671 101.729 382.285 96.2541 377.811 92.3041C373.338 88.3542 367.839 86.3792 361.315 86.3792C354.853 86.3792 349.385 88.2849 344.912 92.0962C340.5 95.9076 337.114 101.313 334.753 108.312C332.392 115.311 331.211 123.557 331.211 133.051Z" fill="#070C29"/>
<path d="M494.025 215.896C484.891 215.896 476.752 214.129 469.607 210.595C462.461 206.991 456.807 201.69 452.644 194.691C448.544 187.623 446.493 178.822 446.493 168.289C446.493 159.419 447.953 151.969 450.874 145.94C453.794 139.911 457.77 135.061 462.803 131.388C467.836 127.715 473.552 124.943 479.952 123.072C486.414 121.201 493.186 119.884 500.269 119.122C508.595 118.152 515.306 117.251 520.401 116.42C525.496 115.519 529.192 114.202 531.491 112.47C533.79 110.737 534.94 108.173 534.94 104.778V104.154C534.94 97.5707 533.076 92.4774 529.348 88.8739C525.682 85.2704 520.463 83.4687 513.69 83.4687C506.545 83.4687 500.86 85.2358 496.635 88.77C492.41 92.2348 489.614 96.6006 488.247 101.867L451.526 98.5409C453.39 88.8393 457.056 80.4543 462.524 73.3859C467.991 66.2483 475.043 60.7738 483.68 56.9625C492.379 53.0818 502.444 51.1415 513.877 51.1415C521.83 51.1415 529.441 52.1809 536.711 54.2599C544.042 56.3388 550.535 59.5611 556.189 63.9268C561.906 68.2926 566.41 73.9057 569.703 80.7661C572.996 87.5573 574.643 95.6997 574.643 105.193V212.882H536.99V190.741H535.872C533.573 195.731 530.497 200.131 526.645 203.942C522.793 207.684 518.164 210.629 512.758 212.778C507.353 214.857 501.108 215.896 494.025 215.896ZM505.395 185.336C511.236 185.336 516.393 184.054 520.867 181.49C525.34 178.857 528.851 175.322 531.398 170.887C533.946 166.452 535.219 161.428 535.219 155.815V138.872C533.977 139.773 532.268 140.604 530.093 141.367C527.981 142.06 525.589 142.718 522.917 143.342C520.245 143.896 517.574 144.416 514.902 144.901C512.23 145.317 509.807 145.698 507.632 146.044C502.972 146.807 498.903 148.019 495.423 149.682C491.944 151.346 489.241 153.598 487.315 156.439C485.389 159.211 484.425 162.676 484.425 166.833C484.425 172.862 486.383 177.471 490.297 180.658C494.274 183.777 499.306 185.336 505.395 185.336Z" fill="#070C29"/>
<path d="M639.9 120.577V212.882H600.196V53.2204H638.036V81.3898H639.713C642.882 72.1039 648.194 64.7584 655.65 59.3532C663.106 53.8787 672.147 51.1415 682.771 51.1415C692.713 51.1415 701.38 53.5669 708.774 58.4177C716.168 63.2685 721.915 70.1983 726.016 79.2069C730.117 88.1463 732.167 98.8181 732.167 111.222V212.882H692.464V119.122C692.526 109.351 690.29 101.729 685.754 96.2541C681.218 90.7103 674.974 87.9384 667.021 87.9384C661.677 87.9384 656.955 89.2204 652.854 91.7844C648.816 94.3484 645.647 98.0905 643.348 103.011C641.111 107.861 639.962 113.717 639.9 120.577Z" fill="#070C29"/>
<path d="M822.891 216C808.414 216 795.894 212.57 785.331 205.709C774.831 198.78 766.722 189.147 761.006 176.812C755.29 164.408 752.432 150.029 752.432 133.675C752.432 117.182 755.29 102.768 761.006 90.4331C766.722 78.0289 774.831 68.3965 785.331 61.5361C795.894 54.6064 808.414 51.1415 822.891 51.1415C837.368 51.1415 849.857 54.6064 860.357 61.5361C870.92 68.3965 879.059 78.0289 884.776 90.4331C890.492 102.768 893.35 117.182 893.35 133.675C893.35 150.029 890.492 164.408 884.776 176.812C879.059 189.147 870.92 198.78 860.357 205.709C849.857 212.57 837.368 216 822.891 216ZM823.077 181.698C829.663 181.698 835.162 179.619 839.574 175.461C843.985 171.234 847.309 165.482 849.546 158.206C851.845 150.93 852.994 142.649 852.994 133.363C852.994 124.077 851.845 115.796 849.546 108.52C847.309 101.244 843.985 95.4918 839.574 91.2647C835.162 87.0375 829.663 84.924 823.077 84.924C816.429 84.924 810.837 87.0375 806.301 91.2647C801.828 95.4918 798.441 101.244 796.143 108.52C793.906 115.796 792.787 124.077 792.787 133.363C792.787 142.649 793.906 150.93 796.143 158.206C798.441 165.482 801.828 171.234 806.301 175.461C810.837 179.619 816.429 181.698 823.077 181.698Z" fill="#070C29"/>
<path d="M1005.72 144.901V53.2204H1045.42V212.882H1007.3V183.881H1005.81C1002.58 193.236 997.207 200.755 989.689 206.437C982.233 212.119 973.13 214.961 962.381 214.961C952.813 214.961 944.394 212.535 937.124 207.684C929.854 202.833 924.169 195.938 920.068 186.999C916.03 178.06 913.979 167.353 913.917 154.88V53.2204H953.62V146.98C953.682 156.404 955.95 163.854 960.424 169.328C964.898 174.803 970.893 177.54 978.412 177.54C983.196 177.54 987.669 176.327 991.832 173.902C995.995 171.407 999.35 167.734 1001.9 162.884C1004.51 158.033 1005.78 152.038 1005.72 144.901Z" fill="#070C29"/>
<path d="M1191.04 98.7488L1154.69 101.243C1154.07 97.7786 1152.74 94.6602 1150.68 91.8884C1148.63 89.0472 1145.93 86.795 1142.58 85.1318C1139.28 83.3994 1135.34 82.5332 1130.74 82.5332C1124.59 82.5332 1119.4 83.9884 1115.18 86.8989C1110.95 89.7401 1108.84 93.5515 1108.84 98.333C1108.84 102.144 1110.21 105.367 1112.94 108C1115.67 110.633 1120.36 112.747 1127.01 114.341L1152.92 120.162C1166.84 123.349 1177.22 128.477 1184.05 135.546C1190.89 142.614 1194.3 151.9 1194.3 163.403C1194.3 173.867 1191.54 183.049 1186.01 190.949C1180.54 198.849 1173.02 205.016 1163.45 209.451C1153.95 213.817 1142.98 216 1130.55 216C1111.6 216 1096.5 211.6 1085.26 202.799C1074.07 193.929 1067.52 181.871 1065.59 166.626L1104.64 164.339C1105.82 170.783 1108.68 175.704 1113.22 179.099C1117.75 182.425 1123.56 184.089 1130.65 184.089C1137.61 184.089 1143.2 182.599 1147.42 179.619C1151.71 176.57 1153.88 172.654 1153.95 167.873C1153.88 163.854 1152.36 160.562 1149.38 157.998C1146.4 155.365 1141.8 153.355 1135.59 151.969L1110.8 146.46C1096.82 143.342 1086.41 137.936 1079.57 130.244C1072.8 122.552 1069.41 112.747 1069.41 100.828C1069.41 90.5717 1071.9 81.7363 1076.87 74.3215C1081.9 66.9066 1088.96 61.1896 1098.03 57.1704C1107.16 53.1511 1117.85 51.1415 1130.09 51.1415C1148.17 51.1415 1162.4 55.4033 1172.77 63.9268C1183.21 72.4504 1189.3 84.0577 1191.04 98.7488Z" fill="#070C29"/>
<path d="M1279.29 216C1264.57 216 1251.89 212.674 1241.27 206.021C1230.71 199.299 1222.57 189.806 1216.85 177.54C1211.13 165.205 1208.28 150.618 1208.28 133.779C1208.28 117.355 1211.13 102.941 1216.85 90.537C1222.57 78.1328 1230.61 68.4658 1240.99 61.5361C1251.43 54.6064 1263.67 51.1415 1277.71 51.1415C1287.15 51.1415 1295.95 52.8393 1304.09 56.2348C1312.29 59.5611 1319.43 64.5852 1325.52 71.307C1331.67 78.0289 1336.46 86.4832 1339.87 96.6699C1343.29 106.787 1345 118.637 1345 132.219V144.381H1224.12V116.939H1307.63C1307.63 110.564 1306.38 104.916 1303.9 99.9961C1301.41 95.076 1297.97 91.23 1293.55 88.4581C1289.2 85.6169 1284.14 84.1963 1278.36 84.1963C1272.34 84.1963 1266.99 85.7555 1262.33 88.8739C1257.73 91.923 1254.13 96.0462 1251.52 101.243C1248.91 106.372 1247.58 112.089 1247.51 118.395V144.485C1247.51 152.385 1248.82 159.211 1251.43 164.962C1254.1 170.714 1257.86 175.149 1262.7 178.268C1267.55 181.386 1273.3 182.945 1279.95 182.945C1284.36 182.945 1288.4 182.252 1292.06 180.866C1295.73 179.48 1298.87 177.401 1301.48 174.629C1304.09 171.858 1306.07 168.462 1307.44 164.443L1344.16 167.145C1342.3 176.986 1338.48 185.578 1332.7 192.924C1326.98 200.2 1319.59 205.883 1310.52 209.971C1301.51 213.99 1291.1 216 1279.29 216Z" fill="#070C29"/>
</g>
<defs>
<filter id="filter0_dd_8186_36517" x="0" y="0" width="1349" height="224" filterUnits="userSpaceOnUse" color-interpolation-filters="sRGB">
<feFlood flood-opacity="0" result="BackgroundImageFix"/>
<feColorMatrix in="SourceAlpha" type="matrix" values="0 0 0 0 0 0 0 0 0 0 0 0 0 0 0 0 0 0 127 0" result="hardAlpha"/>
<feOffset dy="4"/>
<feGaussianBlur stdDeviation="2"/>
<feComposite in2="hardAlpha" operator="out"/>
<feColorMatrix type="matrix" values="0 0 0 0 0 0 0 0 0 0 0 0 0 0 0 0 0 0 0.25 0"/>
<feBlend mode="normal" in2="BackgroundImageFix" result="effect1_dropShadow_8186_36517"/>
<feColorMatrix in="SourceAlpha" type="matrix" values="0 0 0 0 0 0 0 0 0 0 0 0 0 0 0 0 0 0 127 0" result="hardAlpha"/>
<feOffset dy="4"/>
<feGaussianBlur stdDeviation="2"/>
<feComposite in2="hardAlpha" operator="out"/>
<feColorMatrix type="matrix" values="0 0 0 0 0 0 0 0 0 0 0 0 0 0 0 0 0 0 0.25 0"/>
<feBlend mode="normal" in2="effect1_dropShadow_8186_36517" result="effect2_dropShadow_8186_36517"/>
<feBlend mode="normal" in="SourceGraphic" in2="effect2_dropShadow_8186_36517" result="shape"/>
</filter>
</defs>
</svg>
