<svg width="202" height="251" viewBox="0 0 202 251" fill="none" xmlns="http://www.w3.org/2000/svg">
<path fill-rule="evenodd" clip-rule="evenodd" d="M99.9483 30.3276L117.46 0L167.105 28.6674L149.6 58.9883C146.525 64.3074 151.127 70.7754 157.157 69.6133L190.705 63.1387L201.563 119.431L168.014 125.899C113.747 136.364 72.3168 78.1929 99.9483 30.3276Z" fill="#0D1126"/>
<path fill-rule="evenodd" clip-rule="evenodd" d="M69.6142 235.294L52.103 265.621L2.45136 236.961L19.9626 206.633C23.0372 201.314 18.4352 194.846 12.399 196.008L-21.1426 202.476L-32 146.191L1.54824 139.723C55.8151 129.257 97.2391 187.429 69.6142 235.294Z" fill="#0D1126"/>
<path fill-rule="evenodd" clip-rule="evenodd" d="M71.1303 30.3276L53.6257 0L3.97401 28.6674L21.4852 58.9883C24.5532 64.3074 19.9579 70.7754 13.9216 69.6133L-19.6266 63.1387L-30.4707 119.431L3.0709 125.899C57.3444 136.364 98.775 78.1929 71.1369 30.3276H71.1303Z" fill="#0D1126"/>
<path fill-rule="evenodd" clip-rule="evenodd" d="M98.4882 235.294L115.986 265.621L165.638 236.961L148.127 206.633C145.059 201.314 149.654 194.846 155.69 196.008L189.232 202.476L200.089 146.191L166.541 139.723C112.274 129.257 70.8501 187.429 98.4749 235.294H98.4882Z" fill="#0D1126"/>
</svg>
