<svg width="27" height="30" viewBox="0 0 27 30" fill="none" xmlns="http://www.w3.org/2000/svg">
<path fill-rule="evenodd" clip-rule="evenodd" d="M14.8167 3.42525L16.7831 0L22.3578 3.23775L20.3922 6.66225C20.0469 7.263 20.5637 7.9935 21.2408 7.86225L25.008 7.131L26.2272 13.4888L22.46 14.2192C16.3662 15.4012 11.7139 8.83125 14.8167 3.42525Z" fill="#090C1B"/>
<path fill-rule="evenodd" clip-rule="evenodd" d="M11.4105 26.5748L9.44416 30L3.86864 26.763L5.83502 23.3378C6.18028 22.737 5.66351 22.0065 4.98568 22.1378L1.2192 22.8683L0 16.5113L3.76722 15.7808C9.861 14.5988 14.5126 21.1688 11.4105 26.5748Z" fill="#090C1B"/>
<path fill-rule="evenodd" clip-rule="evenodd" d="M11.5804 3.42525L9.6148 0L4.03928 3.23775L6.00566 6.66225C6.35017 7.263 5.83415 7.9935 5.15632 7.86225L1.3891 7.131L0.171387 13.4888L3.93787 14.2192C10.0324 15.4012 14.6847 8.83125 11.5812 3.42525H11.5804Z" fill="#090C1B"/>
<path fill-rule="evenodd" clip-rule="evenodd" d="M14.6528 26.5748L16.6177 30L22.1932 26.763L20.2269 23.3378C19.8823 22.737 20.3984 22.0065 21.0762 22.1378L24.8427 22.8683L26.0619 16.5113L22.2947 15.7808C16.2009 14.5988 11.5493 21.1688 14.6513 26.5748H14.6528Z" fill="#090C1B"/>
</svg>
