<svg width="72" height="72" viewBox="0 0 72 72" fill="none" xmlns="http://www.w3.org/2000/svg">
<rect x="0.5" y="0.5" width="71" height="71" rx="35.5" stroke="black"/>
<path fill-rule="evenodd" clip-rule="evenodd" d="M31 25L46 25C46.2652 25 46.5196 25.1054 46.7071 25.2929C46.8946 25.4804 47 25.7348 47 26V41C47 41.5523 46.5523 42 46 42C45.4477 42 45 41.5523 45 41V28.4142L26.7071 46.7071C26.3166 47.0976 25.6834 47.0976 25.2929 46.7071C24.9024 46.3166 24.9024 45.6834 25.2929 45.2929L43.5858 27L31 27C30.4477 27 30 26.5523 30 26C30 25.4477 30.4477 25 31 25Z" fill="black"/>
</svg>
